<?xml version="1.0" encoding="utf-8"?>
<!-- Generator: Adobe Illustrator 24.1.3, SVG Export Plug-In . SVG Version: 6.00 Build 0)  -->
<svg version="1.1" id="Layer_1" xmlns="http://www.w3.org/2000/svg" xmlns:xlink="http://www.w3.org/1999/xlink" x="0px" y="0px"
	 viewBox="0 0 512 512" style="enable-background:new 0 0 512 512;" xml:space="preserve">
<style type="text/css">
	.st0{fill:#00D595;}
</style>
<g id="Insurance">
	<path class="st0" d="M493.7,114.7l-96.2-96.4c-1.5-1.5-3.5-2.3-5.6-2.3H152c-13.2,0-24,10.8-24,24v8.4
		c-57.2,4.3-100,54.2-95.7,111.4c2.5,32.9,20.5,62.7,48.5,80.2H40c-4.4,0-8,3.6-8,8v40h-8c-4.4,0-8,3.6-8,8v48c0,4.4,3.6,8,8,8h8v32
		h-8c-4.4,0-8,3.6-8,8v48c0,4.4,3.6,8,8,8h8v40c0,4.4,3.6,8,8,8h192c4.4,0,8-3.6,8-8v-24h232c13.2,0,24-10.8,24-24V120.4
		C496,118.3,495.2,116.2,493.7,114.7z M400,43.4l68.3,68.6H408c-4.4,0-8-3.6-8-8V43.4z M48,152c0-48.6,39.4-88,88-88s88,39.4,88,88
		s-39.4,88-88,88C87.4,240,48,200.6,48,152z M208,304v32h-32v-32H208z M192,288v-32h32v32H192z M224,352v32h-32v-32H224z M176,288
		h-32v-32h32V288z M128,304h32v32h-32V304z M96,288v-32h32v32H96z M144,352h32v32h-32V352z M112,304v32H80v-32H112z M128,352v32H96
		v-32H128z M48,256h32v32H48V256z M32,304h32v32H32V304z M80,352v32H48v-32H80z M32,432v-32h32v32H32z M80,480H48v-32h32V480z
		 M80,400h32v32H80V400z M128,480H96v-32h32V480z M128,400h32v32h-32V400z M176,480h-32v-32h32V480z M176,400h32v32h-32V400z
		 M224,480h-32v-32h32V480z M480,440c0,4.4-3.6,8-8,8H240v-8c0-4.4-3.6-8-8-8h-8v-32h8c4.4,0,8-3.6,8-8v-48c0-4.4-3.6-8-8-8h-8v-32
		h8c4.4,0,8-3.6,8-8v-48c0-4.4-3.6-8-8-8h-40.8c48.6-30.3,63.4-94.3,33.1-142.8c-3.9-6.2-8.3-11.9-13.4-17.2H240V64h-32v13.1
		c-17.3-16.7-40-26.9-64-28.7V40c0-4.4,3.6-8,8-8h232v72c0,13.2,10.8,24,24,24h72V440z"/>
	<path class="st0" d="M256,64h112v16H256V64z"/>
	<path class="st0" d="M256,96h112v16H256V96z"/>
	<path class="st0" d="M304,144h32v16h-32V144z"/>
	<path class="st0" d="M352,144h112v16H352V144z"/>
	<path class="st0" d="M304,176h32v16h-32V176z"/>
	<path class="st0" d="M352,176h112v16H352V176z"/>
	<path class="st0" d="M136,112c8.8,0,16,7.2,16,16h16c-0.1-14.5-9.9-27.2-24-30.9V80h-16v17.1c-17.1,4.4-27.4,21.8-23,38.9
		c3.6,14.1,16.4,24,31,24c8.8,0,16,7.2,16,16s-7.2,16-16,16s-16-7.2-16-16h-16c0.1,14.5,9.9,27.2,24,30.9V224h16v-17.1
		c17.1-4.4,27.4-21.8,23-38.9c-3.6-14.1-16.4-24-31-24c-8.8,0-16-7.2-16-16S127.2,112,136,112z"/>
	<path class="st0" d="M419.4,419.8H310.6c-15,0-27.2-12.2-27.2-27.2V320c0-15,12.2-27.2,27.2-27.2h108.9c15,0,27.2,12.2,27.2,27.2
		v72.6C446.7,407.6,434.4,419.8,419.4,419.8z M310.6,310.9c-5,0-9.1,4.1-9.1,9.1v72.6c0,5,4.1,9.1,9.1,9.1h108.9
		c5,0,9.1-4.1,9.1-9.1V320c0-5-4.1-9.1-9.1-9.1H310.6z"/>
	<path class="st0" d="M401.3,310.9h-72.6c-5,0-9.1-4.1-9.1-9.1v-36.3c0-25,20.3-45.4,45.4-45.4s45.4,20.4,45.4,45.4v36.3
		C410.4,306.9,406.3,310.9,401.3,310.9z M337.8,292.8h54.4v-27.2c0-15-12.2-27.2-27.2-27.2s-27.2,12.2-27.2,27.2V292.8z"/>
</g>
</svg>
