<?xml version="1.0" encoding="utf-8"?>
<!-- Generator: Adobe Illustrator 24.1.3, SVG Export Plug-In . SVG Version: 6.00 Build 0)  -->
<svg version="1.1" id="Layer_1" xmlns="http://www.w3.org/2000/svg" xmlns:xlink="http://www.w3.org/1999/xlink" x="0px" y="0px"
	 viewBox="0 0 500 300" style="enable-background:new 0 0 500 300;" xml:space="preserve">
<style type="text/css">
	.st0{fill:#FFFFFF;}
	.st1{fill:#73D64A;}
	.st2{fill:none;stroke:#FFFFFF;stroke-miterlimit:10;}
</style>
<g>
	<g>
		<g>
			<path class="st0" d="M72.9,195.2c-49.5-8.5-6.9-47.1,24.5-14.9c0.9,0.9,2.3,1,3.4,0.2l17.2-12.7c1.1-0.8,1.4-2.4,0.6-3.5
				c-4.8-6.6-22.5-26.8-59-22.5C16,147,17,178,17,178s-5.7,36.9,57,47.9c42.4,6.3-0.3,55-41.9,11.2c-0.9-1-2.4-1.1-3.4-0.3l-17.6,13
				c-1,0.8-1.3,2.2-0.7,3.3c3.9,6.9,19.4,29,58.3,29c46,0,56.4-28.5,56.6-42.4S118.5,205.2,72.9,195.2z"/>
		</g>
		<g>
			<path class="st0" d="M251.2,145.1l-27.1,7.4c-1.1,0.3-1.9,1.3-1.9,2.5c0,0,0,50.3,0,67c0,9.5,0,28.3-25.6,28.3
				c-25.3,0-25.3-18.8-25.3-28.3c0-18.7,0-74.7,0-74.7c0-1.7-1.6-2.9-3.2-2.4l-27.1,7.4c-1.1,0.3-1.9,1.3-1.9,2.5v67.3
				c0,0-1.6,59.9,57.4,59.9s57.8-59.9,57.8-59.9v-74.4C254.3,145.9,252.8,144.7,251.2,145.1z"/>
		</g>
		<g>
			<path class="st1" d="M361.6,145l-54.9,17.2v-14.6c0-1.7-1.6-2.9-3.3-2.4l-28.2,8.6v48l87.8-27c1.1-0.3,1.8-1.3,1.8-2.4v-24.9
				C364.9,145.7,363.3,144.5,361.6,145z"/>
		</g>
		<g>
			<path class="st0" d="M275.3,278.5c0,1.7,1.4,3.1,3.1,3.1h25.3c1.7,0,3.1-1.4,3.1-3.1v-69.9l-31.5,9.7V278.5z"/>
		</g>
		<path class="st0" d="M488.1,201.7V200c0-31.4-24.6-57.9-56-58.8c-32.6-0.9-59.2,25.2-59.2,57.6v24.2c0,31.4,24.6,57.9,56,58.8
			c32.6,0.9,59.2-25.2,59.2-57.6v-0.7c0-1.7-1.7-3-3.3-2.4l-28.3,8.7c-1,0.3-1.7,1.1-1.8,2.1c-1.1,10.5-12.6,18.4-24.2,18.4
			c-12.7,0-25.4-8.7-25.4-21.4l81.3-24.8C487.4,203.8,488.1,202.9,488.1,201.7z M430.5,172.8c10.7,0,19.9,6.6,23.6,16l-49.1,15v-5.5
			C405,184.2,416.4,172.8,430.5,172.8z"/>
		<g>
			<path class="st0" d="M41,40.1c0-1.1-0.9-1.9-1.8-1.6l-12.9,3.7c-1,0.4-1.6,1.4-1.6,2.6v28.4l0,0v18c0,4.3-0.7,7.6-2.1,9.3
				c-1.5,1.9-5,2.3-7.7,2.3h-1.1c-1.8,0-3.3,1.5-3.3,3.3v8c0,1.8,1.5,3.3,3.3,3.3h2c4.8,0,8.9-0.7,12.1-2c3.4-1.4,6.1-3.3,8.1-5.8
				c1.9-2.4,3.3-5.3,4-8.6c0.7-3.1,1-6.4,1-10V43.8l0,0V40.1z"/>
			<path class="st0" d="M252.2,53.2l-13.2,4.1c-0.7,0.2-1.2,0.8-1.2,1.6v22.9h-17.5v-27c0-1.1-1.1-1.9-2.1-1.6l-13.2,4.1
				c-0.7,0.2-1.2,0.8-1.2,1.6v22.9h-17.5v-27c0-1.1-1.1-1.9-2.1-1.6l-13.2,4.1c-0.7,0.2-1.2,0.8-1.2,1.6v22.9H112l0,0h-8.1V42.3
				c0-1.7-1.3-3.1-3.1-3.3c-2.2-0.2-4.6-0.6-7.2-0.6c-1.9,0-5.3,0-7.4,0c-6.1,0-11.3,0.3-15.7,1.7c-4.5,1.4-8.2,3.5-11.2,6.1
				c-3,2.6-5.2,5.8-6.6,9.5c-1.4,3.6-2.1,7.5-2.1,11.8c0,2.9,0.4,6,1.2,9.2c0.8,3.5,2.5,6.7,4.9,9.6s5.8,5.4,10.1,7.2
				c4.2,1.9,9.8,2.8,16.5,2.8H87c-0.4,2.1-1.2,3.6-2.2,4.6c-1.5,1.4-4.4,2.2-8.3,2.2H62.4c-1.8,0-3.3,1.5-3.3,3.3v7.7
				c0,1.8,1.5,3.3,3.3,3.3h14.5c4.7,0,8.8-0.5,12.1-1.6c3.4-1.1,6.3-2.7,8.5-4.9c2.2-2.1,3.9-4.8,4.9-7.9c0.7-2.1,1.2-4.3,1.5-6.7
				h150.6V54.8C254.3,53.7,253.3,52.9,252.2,53.2z M87.8,52.2v29.6h-3.3c-2.9,0-5.4-0.3-7.7-0.8c-2.1-0.5-3.8-1.3-5.3-2.4
				c-1.4-1-2.4-2.4-3.2-4.1c-0.8-1.8-1.2-4.1-1.2-6.9c0-3.7,0.6-6.6,1.8-8.6c1.2-2,2.7-3.4,4.4-4.4c1.9-1,3.9-1.7,6.1-1.9
				c2.5-0.3,4.9-0.4,7.1-0.4C87.1,52.2,87.4,52.2,87.8,52.2z"/>
			<path class="st0" d="M198.2,44.1h5.5c1.7,0,3.1-1.4,3.1-3.1v-5.5c0-1.7-1.4-3.1-3.1-3.1h-5.5c-1.7,0-3.1,1.4-3.1,3.1V41
				C195.2,42.7,196.4,44.1,198.2,44.1z"/>
			<path class="st0" d="M216.9,41c0,1.7,1.4,3.1,3.1,3.1h5.5c1.7,0,3.1-1.4,3.1-3.1v-5.5c0-1.7-1.4-3.1-3.1-3.1H220
				c-1.7,0-3.1,1.4-3.1,3.1V41z"/>
			<path class="st0" d="M208.9,27.1h5.5c1.7,0,3.1-1.4,3.1-3.1v-5.5c0-1.7-1.4-3.1-3.1-3.1h-5.5c-1.7,0-3.1,1.4-3.1,3.1V24
				C205.8,25.7,207.2,27.1,208.9,27.1z"/>
		</g>
	</g>
	<line class="st2" x1="279.4" y1="48.5" x2="279.4" y2="100.3"/>
</g>
<g>
	<path class="st0" d="M313.7,95.4c0.5,0,0.7,0.2,0.7,0.6v1.3c0,0.5-0.2,0.8-0.7,0.8H313c-0.4,0-0.7,0-1.1-0.1
		c-0.4-0.1-0.7-0.1-1.1-0.3c-0.4-0.1-0.7-0.4-1-0.7c-0.3-0.3-0.5-0.7-0.7-1.3v2.5c0,1-0.1,1.8-0.4,2.7c-0.3,0.8-0.7,1.5-1.2,2.2
		c-0.5,0.6-1.1,1.1-1.8,1.5c-0.7,0.4-1.6,0.5-2.6,0.5c-0.5,0-1,0-1.4-0.1c-0.4-0.1-0.7-0.1-1-0.1l0.3-2.7l0.7,0.1
		c0.2,0.1,0.4,0.1,0.7,0.1s0.4,0,0.7,0c1.3,0,2.1-0.4,2.6-1.1c0.4-0.7,0.7-1.9,0.7-3.5V85.3h2.7v6c0,0.6,0.1,1.1,0.1,1.5
		c0.1,0.4,0.4,0.9,0.7,1.3c0.3,0.4,0.7,0.7,1.2,0.8c0.5,0.2,1.1,0.3,1.8,0.3h0.9L313.7,95.4L313.7,95.4z"/>
	<path class="st0" d="M313.1,98.1c-0.5,0-0.7-0.2-0.7-0.6v-1.3c0-0.5,0.2-0.8,0.7-0.8h2.9c0.8,0,1.3-0.2,1.6-0.7s0.4-1.1,0.4-1.8
		v-7.5h2.7v6c0,0.6,0.1,1.1,0.1,1.5c0.1,0.4,0.4,0.9,0.7,1.3c0.3,0.4,0.7,0.7,1.2,0.8c0.5,0.2,1.1,0.3,1.8,0.3h0.7
		c0.5,0,0.7,0.2,0.7,0.6v1.3c0,0.5-0.2,0.8-0.7,0.8h-0.8c-1,0-1.8-0.2-2.6-0.6c-0.7-0.4-1.2-1-1.5-2c-0.2,0.5-0.5,1-0.8,1.3
		c-0.3,0.4-0.6,0.6-1,0.7c-0.4,0.1-0.7,0.3-1.1,0.4c-0.4,0.1-0.8,0.1-1.3,0.1h-3.1V98.1z M315.7,103.5c0-0.4,0.1-0.8,0.4-1.1
		c0.3-0.3,0.7-0.4,1.1-0.4s0.8,0.1,1.1,0.4c0.3,0.3,0.4,0.7,0.4,1.1s-0.1,0.8-0.4,1.1s-0.7,0.4-1.1,0.4s-0.8-0.1-1.1-0.4
		C315.9,104.2,315.7,103.9,315.7,103.5z M320.2,103.5c0-0.4,0.1-0.8,0.4-1.1c0.3-0.3,0.7-0.4,1.1-0.4s0.8,0.1,1.1,0.4
		c0.3,0.3,0.4,0.7,0.4,1.1s-0.1,0.8-0.4,1.1c-0.3,0.3-0.7,0.4-1.1,0.4s-0.8-0.1-1.1-0.4C320.3,104.2,320.2,103.9,320.2,103.5z"/>
	<path class="st0" d="M324.7,98.1c-0.5,0-0.7-0.2-0.7-0.6v-1.3c0-0.5,0.2-0.8,0.7-0.8h5v-10h2.7v12.7H324.7z M327.2,79.1
		c0-0.4,0.1-0.8,0.4-1.1c0.3-0.3,0.7-0.4,1.1-0.4s0.8,0.1,1.1,0.4c0.3,0.3,0.4,0.7,0.4,1.1s-0.1,0.8-0.4,1.1
		c-0.3,0.3-0.7,0.4-1.1,0.4s-0.8-0.1-1.1-0.4C327.3,79.8,327.2,79.4,327.2,79.1z M331.6,79.1c0-0.4,0.1-0.8,0.4-1.1s0.7-0.4,1.1-0.4
		s0.8,0.1,1.1,0.4s0.4,0.7,0.4,1.1s-0.1,0.8-0.4,1.1c-0.3,0.3-0.7,0.4-1.1,0.4s-0.8-0.1-1.1-0.4C331.7,79.8,331.6,79.4,331.6,79.1z"
		/>
	<path class="st0" d="M337.8,74.2h2.6v23.9h-2.6V74.2z"/>
	<path class="st0" d="M361.6,95.4c0.5,0,0.7,0.2,0.7,0.6v1.3c0,0.5-0.2,0.8-0.7,0.8h-3.7c0,1.4-0.2,2.6-0.7,3.5
		c-0.4,1-1,1.8-1.8,2.4c-0.7,0.6-1.6,1.1-2.7,1.3c-1,0.3-2.1,0.4-3.4,0.4c-0.4,0-1,0-1.4,0c-0.5,0-1-0.1-1.5-0.1
		c0.1-0.4,0.1-0.9,0.1-1.3c0-0.4,0.1-0.8,0.1-1.3c0.5,0.1,1,0.1,1.5,0.1c0.5,0,1,0.1,1.4,0.1c0.7,0,1.5-0.1,2.1-0.2
		c0.7-0.1,1.3-0.4,1.8-0.7c0.5-0.4,1-0.9,1.3-1.5c0.3-0.7,0.4-1.5,0.5-2.6h-3.1c-1.3,0-2.4-0.2-3.3-0.6c-1-0.4-1.7-0.9-2.2-1.5
		s-1-1.3-1.3-2.1c-0.2-0.7-0.4-1.5-0.4-2.3c0-1,0.1-2,0.5-3c0.4-1,0.8-1.7,1.4-2.4c0.6-0.7,1.3-1.3,2.1-1.6s1.8-0.6,2.7-0.6
		c1,0,1.8,0.1,2.6,0.4s1.4,0.7,1.9,1.3s0.9,1.3,1.2,2c0.3,0.8,0.4,1.6,0.4,2.6v4.9L361.6,95.4L361.6,95.4z M355.3,95.4v-3.8
		c0-1.5-0.4-2.7-1-3.6c-0.7-0.9-1.5-1.3-2.7-1.3c-0.5,0-1,0.1-1.5,0.3c-0.5,0.2-0.9,0.5-1.3,0.9c-0.4,0.4-0.7,0.9-0.9,1.4
		s-0.4,1.1-0.4,1.8c0,0.8,0.1,1.5,0.4,2c0.2,0.6,0.6,1,1,1.3c0.4,0.4,0.9,0.6,1.4,0.7c0.5,0.1,1.1,0.2,1.7,0.2
		C352.1,95.4,355.3,95.4,355.3,95.4z"/>
	<path class="st0" d="M361.2,98.1c-0.5,0-0.7-0.2-0.7-0.6v-1.3c0-0.5,0.2-0.8,0.7-0.8h5.5c-0.4-0.4-0.9-1-1.2-1.8
		c-0.4-0.7-0.5-1.6-0.5-2.5s0.1-1.7,0.5-2.6c0.4-0.8,0.8-1.6,1.5-2.2c0.6-0.7,1.4-1.2,2.3-1.5s1.8-0.6,3-0.6c0.9,0,1.7,0.1,2.4,0.4
		s1.3,0.7,1.8,1.3c0.5,0.5,0.9,1.2,1.2,2c0.3,0.7,0.4,1.6,0.4,2.5v5.1h3c0.5,0,0.7,0.2,0.7,0.6v1.3c0,0.5-0.2,0.8-0.7,0.8
		L361.2,98.1L361.2,98.1z M375.3,95.4v-5.2c0-0.4-0.1-0.8-0.2-1.3c-0.1-0.4-0.4-0.8-0.7-1.1c-0.3-0.4-0.7-0.6-1.1-0.8
		s-1-0.3-1.6-0.3c-0.5,0-1,0.1-1.5,0.3c-0.5,0.2-1,0.5-1.3,0.9c-0.4,0.4-0.7,0.9-0.9,1.4s-0.3,1.1-0.3,1.8c0,1,0.2,1.8,0.6,2.4
		c0.4,0.6,0.8,1,1.3,1.3c0.5,0.3,1.2,0.5,2,0.7h3.8V95.4z M370.4,79.1c0-0.4,0.1-0.8,0.4-1.1c0.3-0.3,0.7-0.4,1.1-0.4
		s0.8,0.1,1.1,0.4c0.3,0.3,0.4,0.7,0.4,1.1s-0.1,0.8-0.4,1.1c-0.3,0.3-0.7,0.4-1.1,0.4s-0.8-0.1-1.1-0.4
		C370.5,79.8,370.4,79.4,370.4,79.1z"/>
	<path class="st0" d="M381.1,98.1c-0.5,0-0.7-0.2-0.7-0.6v-1.3c0-0.5,0.2-0.8,0.7-0.8h2.9c0.8,0,1.3-0.2,1.6-0.7s0.4-1.1,0.4-1.8
		V74.2h2.7v17.3c0,0.6,0.1,1.1,0.1,1.5c0.1,0.4,0.4,0.9,0.7,1.3c0.3,0.4,0.7,0.7,1.2,0.8c0.5,0.2,1.1,0.3,1.8,0.3h0.7
		c0.5,0,0.7,0.2,0.7,0.6v1.3c0,0.5-0.2,0.8-0.7,0.8h-0.8c-1,0-1.8-0.2-2.6-0.6c-0.7-0.4-1.2-1-1.5-2c-0.2,0.5-0.5,1-0.8,1.3
		c-0.3,0.4-0.6,0.6-1,0.7c-0.4,0.1-0.7,0.3-1.1,0.4s-0.8,0.1-1.3,0.1L381.1,98.1L381.1,98.1z"/>
	<path class="st0" d="M392.7,98.1c-0.5,0-0.7-0.2-0.7-0.6v-1.3c0-0.5,0.2-0.8,0.7-0.8h4.3V74.2h2.7v23.9
		C399.6,98.1,392.7,98.1,392.7,98.1z"/>
</g>
<g>
	<path class="st0" d="M299.8,43.1c1.2-0.2,3-0.4,4.8-0.4c2.6,0,4.4,0.5,5.6,1.5c1.1,0.8,1.7,2,1.7,3.6c0,2-1.3,3.7-3.5,4.5v0.1
		c1.9,0.5,4.2,2.1,4.2,5.1c0,1.8-0.7,3.1-1.7,4.1c-1.4,1.3-3.7,1.9-7.1,1.9c-1.8,0-3.2-0.1-4.1-0.2V43.1z M302.5,51.5h2.4
		c2.8,0,4.4-1.5,4.4-3.4c0-2.4-1.8-3.4-4.5-3.4c-1.2,0-1.9,0.1-2.3,0.2V51.5z M302.5,61.4c0.5,0.1,1.3,0.1,2.2,0.1
		c2.7,0,5.3-1,5.3-4c0-2.8-2.4-4-5.3-4h-2.2V61.4z"/>
	<path class="st0" d="M319.2,44.5c0,0.9-0.6,1.6-1.7,1.6c-0.9,0-1.6-0.7-1.6-1.6c0-0.9,0.7-1.7,1.7-1.7
		C318.6,42.8,319.2,43.6,319.2,44.5z M316.3,63.4V48.6h2.7v14.7H316.3z"/>
	<path class="st0" d="M323.4,41.8h2.7v21.6h-2.7V41.8z"/>
	<path class="st0" d="M330.6,41.8h2.7v21.6h-2.7V41.8z"/>
	<path class="st0" d="M337.4,60.6c0.8,0.5,2.2,1.1,3.5,1.1c1.9,0,2.9-1,2.9-2.2c0-1.3-0.8-2-2.7-2.7c-2.6-0.9-3.9-2.4-3.9-4.2
		c0-2.4,1.9-4.3,5.1-4.3c1.5,0,2.8,0.4,3.6,0.9l-0.7,1.9c-0.6-0.4-1.6-0.9-3-0.9c-1.6,0-2.5,0.9-2.5,2c0,1.2,0.9,1.8,2.8,2.5
		c2.6,1,3.9,2.3,3.9,4.4c0,2.6-2,4.4-5.5,4.4c-1.6,0-3.1-0.4-4.1-1L337.4,60.6z"/>
</g>
</svg>
